{
  "asset": {
    "generator": "Khronos glTF Blender I/O v1.7.33",
    "version": "2.0"
  },
  "scene": 0,
  "scenes": [
    {
      "name": "Scene",
      "nodes": [
        0
      ]
    }
  ],
  "nodes": [
    {
      "mesh": 0,
      "name": "sphere_gltf"
    }
  ],
  "materials": [
    {
      "doubleSided": true,
      "name": "leaves_forest_ground",
      "normalTexture": {
        "index": 0
      },
      "pbrMetallicRoughness": {
        "baseColorTexture": {
          "index": 1
        },
        "metallicFactor": 0,
        "metallicRoughnessTexture": {
          "index": 2
        }
      }
    }
  ],
  "meshes": [
    {
      "name": "Sphere.001",
      "primitives": [
        {
          "attributes": {
            "POSITION": 0,
            "NORMAL": 1,
            "TEXCOORD_0": 2
          },
          "indices": 3,
          "material": 0
        }
      ]
    }
  ],
  "textures": [
    {
      "sampler": 0,
      "source": 0
    },
    {
      "sampler": 0,
      "source": 1
    },
    {
      "sampler": 0,
      "source": 2
    }
  ],
  "images": [
    {
      "mimeType": "image/jpeg",
      "name": "leaves_forest_ground_nor_gl_8k",
      "uri": "textures/leaves_forest_ground_nor_gl_4k.jpg"
    },
    {
      "mimeType": "image/jpeg",
      "name": "leaves_forest_ground_diff_8k",
      "uri": "textures/leaves_forest_ground_diff_4k.jpg"
    },
    {
      "mimeType": "image/jpeg",
      "name": "leaves_forest_ground_rough_8k",
      "uri": "textures/leaves_forest_ground_rough_4k.jpg"
    }
  ],
  "accessors": [
    {
      "bufferView": 0,
      "componentType": 5126,
      "count": 53916,
      "max": [
        0.6346003413200378,
        0.635320246219635,
        0.6294501423835754
      ],
      "min": [
        -0.6346004009246826,
        -0.6377159357070923,
        -0.6294482350349426
      ],
      "type": "VEC3"
    },
    {
      "bufferView": 1,
      "componentType": 5126,
      "count": 53916,
      "type": "VEC3"
    },
    {
      "bufferView": 2,
      "componentType": 5126,
      "count": 53916,
      "type": "VEC2"
    },
    {
      "bufferView": 3,
      "componentType": 5123,
      "count": 322170,
      "type": "SCALAR"
    }
  ],
  "bufferViews": [
    {
      "buffer": 0,
      "byteLength": 646992,
      "byteOffset": 0
    },
    {
      "buffer": 0,
      "byteLength": 646992,
      "byteOffset": 646992
    },
    {
      "buffer": 0,
      "byteLength": 431328,
      "byteOffset": 1293984
    },
    {
      "buffer": 0,
      "byteLength": 644340,
      "byteOffset": 1725312
    }
  ],
  "samplers": [
    {
      "magFilter": 9729,
      "minFilter": 9987
    }
  ],
  "buffers": [
    {
      "byteLength": 2369652,
      "uri": "leaves_forest_ground.bin"
    }
  ]
}